<?xml version="1.0" encoding="UTF-8" standalone="no"?>
<!-- Created with Inkscape (http://www.inkscape.org/) -->

<svg
   width="604.72485"
   height="604.72687"
   viewBox="0 0 160.00011 160.00065"
   version="1.1"
   id="svg5"
   xml:space="preserve"
   inkscape:export-filename="logoCooking.png"
   inkscape:export-xdpi="96"
   inkscape:export-ydpi="96"
   xmlns:inkscape="http://www.inkscape.org/namespaces/inkscape"
   xmlns:sodipodi="http://sodipodi.sourceforge.net/DTD/sodipodi-0.dtd"
   xmlns="http://www.w3.org/2000/svg"
   xmlns:svg="http://www.w3.org/2000/svg"
   xmlns:rdf="http://www.w3.org/1999/02/22-rdf-syntax-ns#"
   xmlns:cc="http://creativecommons.org/ns#"
   xmlns:dc="http://purl.org/dc/elements/1.1/"><title
     id="title11">LogoSimpleCooking</title><sodipodi:namedview
     id="namedview7"
     pagecolor="#ffffff"
     bordercolor="#000000"
     borderopacity="0.25"
     inkscape:showpageshadow="2"
     inkscape:pageopacity="0.0"
     inkscape:pagecheckerboard="0"
     inkscape:deskcolor="#7a7a7a"
     inkscape:document-units="mm"
     showgrid="false"
     showguides="true"><inkscape:grid
       type="xygrid"
       id="grid13589" /></sodipodi:namedview><defs
     id="defs2" /><g
     inkscape:label="Warstwa 1"
     inkscape:groupmode="layer"
     id="layer1"
     transform="translate(-16.789156,-93.613333)"><path
       id="path13547"
       style="display:inline;fill:#ffffff;stroke-width:0.264583"
       d="m 96.788924,93.613924 c -5.388522,0.02021 -10.761216,0.584803 -16.03623,1.685169 l -0.837675,11.252547 c 0,0 -2.443391,29.68438 -2.503103,37.07893 -0.0082,1.02148 0.635617,2.16441 1.333493,2.75922 2.876458,2.45166 6.614324,5.98298 8.24618,9.69629 0.51962,1.18242 1.026567,3.11363 1.179257,4.39611 0.574658,4.82697 0.559692,8.76153 0.321944,13.61674 -0.37884,7.73714 -0.779178,15.34401 -2.787944,23.26628 -0.1811,0.71419 -1.0355,1.10918 -1.715141,1.39372 h -5.16e-4 c -0.29859,0.12491 -0.676821,0.25468 -0.964799,0.10697 -0.58379,-0.2994 -0.915416,-1.06097 -0.965316,-1.71514 -0.719178,-9.42125 -0.0131,-19.30958 0,-27.55491 0.0015,-1.06261 -1.140147,-2.01076 -2.144055,-2.35903 -0.41076,-0.14249 -0.892795,0.0305 -1.286743,0.21446 -0.89564,0.41825 -2.251543,1.93011 -2.251543,1.93011 0,0 0.295714,18.33793 -0.428914,27.55491 -0.05956,0.75749 -0.797732,1.42795 -1.5012,1.71514 -0.43142,0.17615 -0.981774,0.11084 -1.393714,-0.10697 -0.809218,-0.42789 -1.677041,-1.22999 -1.715141,-2.14457 -0.330348,-7.93659 -0.50991,-17.41231 -0.857828,-26.05371 -0.03819,-0.94884 -0.188378,-2.13442 -0.965316,-2.68046 -0.52632,-0.36989 -1.32257,-0.21293 -1.929598,0 -0.647818,0.22725 -1.615171,0.60026 -1.608171,1.28675 0.09145,8.98814 -0.216124,18.01776 -0.428914,27.87633 -0.02351,1.08906 -1.057294,2.3995 -2.144572,2.466 -0.959838,0.0587 -1.996615,-0.97934 -2.144055,-1.9296 -1.704646,-10.98093 -3.211923,-24.3535 -1.930115,-36.4541 0.14429,-1.36217 0.395501,-3.68612 0.964799,-4.932 1.745306,-3.81953 3.87594,-6.87963 6.862114,-9.22063 0.822908,-0.6451 1.252543,-2.70706 1.286743,-3.75274 0.479547,-14.63527 -1.134412,-28.91416 -2.107882,-43.361693 -29.977031,12.340733 -49.54319,41.552323 -49.545813,73.970163 1.27e-4,44.1826 35.817168,79.99964 79.999768,79.99977 4.862216,-0.0181 9.712656,-0.47939 14.491106,-1.37821 0.44238,-11.65787 1.06125,-23.32714 1.19321,-34.97203 0.0466,-4.12437 0.18345,-8.25334 0,-12.37392 -0.0914,-2.05018 0.0743,-4.09438 -0.87592,-5.91333 -0.94782,-1.81435 -2.81776,-2.88482 -4.21576,-4.3801 -1.81996,-1.94658 -3.72861,-3.83542 -4.87309,-6.242 -1.16732,-2.45462 -1.85344,-5.17571 -2.08049,-7.88427 -0.26957,-3.21408 0.13888,-6.49609 0.87591,-9.6361 0.92162,-3.9265 1.95414,-7.737 3.77807,-11.33419 0.9204,-1.81525 2.47277,-3.62817 3.8871,-5.09168 1.47754,-1.52893 3.29806,-2.78607 5.25653,-3.61374 1.51412,-0.63989 4.76363,-0.96862 4.886,-0.98082 v -0.003 c 0,0 0.0112,0.002 0.0114,0.002 0.001,-0.001 0.03,-0.004 0.03,-0.004 v 0.007 c 0.12237,0.0122 3.37187,0.34145 4.88601,0.98133 1.95848,0.82767 3.779,2.08429 5.25653,3.61322 1.41433,1.46353 2.96669,3.27695 3.8871,5.0922 1.82392,3.59721 2.85644,7.40717 3.77806,11.33367 0.73703,3.14002 1.1455,6.42203 0.87592,9.63611 -0.22705,2.70854 -0.91318,5.43015 -2.0805,7.88479 -1.14446,2.40656 -3.05311,4.2949 -4.87308,6.24147 -1.39799,1.49528 -3.26795,2.56575 -4.21577,4.3801 -0.95021,1.81896 -0.78451,3.86317 -0.87591,5.91333 -0.18345,4.12058 -0.0466,8.24955 0,12.37392 0.11501,10.14933 0.59466,20.31696 1.01079,30.4798 30.20478,-12.22453 49.977,-41.54713 49.98713,-74.13191 1.6e-4,-44.183 -35.81728,-80.000444 -80.000286,-80.000286 z"
       sodipodi:nodetypes="cccssssssccsccsscssscssscsscssscccccccssscsssscccccsssscsssccccc"
       inkscape:export-filename="path13547.svg"
       inkscape:export-xdpi="96"
       inkscape:export-ydpi="96" /></g><metadata
     id="metadata9"><rdf:RDF><cc:Work
         rdf:about=""><dc:title>LogoSimpleCooking</dc:title><dc:date>01.12.2023</dc:date><dc:creator><cc:Agent><dc:title>Anastazja Wierzbicka</dc:title></cc:Agent></dc:creator></cc:Work></rdf:RDF></metadata></svg>
