<?xml version="1.0" encoding="UTF-8" standalone="no"?>
<svg
   viewBox="0 0 533.44495 516.73151"
   version="1.1"
   id="svg4"
   sodipodi:docname="blob.svg"
   width="533.44495"
   height="516.73151"
   xmlns:inkscape="http://www.inkscape.org/namespaces/inkscape"
   xmlns:sodipodi="http://sodipodi.sourceforge.net/DTD/sodipodi-0.dtd"
   xmlns="http://www.w3.org/2000/svg"
   xmlns:svg="http://www.w3.org/2000/svg">
  <defs
     id="defs8" />
  <sodipodi:namedview
     id="namedview6"
     pagecolor="#ffffff"
     bordercolor="#000000"
     borderopacity="0.25"
     inkscape:showpageshadow="2"
     inkscape:pageopacity="0.0"
     inkscape:pagecheckerboard="0"
     inkscape:deskcolor="#d1d1d1"
     showgrid="false" />
  <path
     fill="#ff0066"
     d="m 403.12807,38.25037 c 35.7409,20.96345 66.6709,51.2058 87.2942,88.66408 20.2764,37.11888 29.8994,81.44628 37.111,135.06398 7.5657,53.6055 12.3768,116.5001 -14.7729,156.0168 -27.4966,39.1839 -86.9472,55.3343 -145.7139,71.4824 -58.7715,16.4978 -116.8453,33.3414 -172.8632,25.088 -56.3597,-7.9042 -110.6655,-40.8944 -146.4067,-87.2903 -36.0829,-46.0503 -53.6048005,-105.4997 -46.0443005,-158.7676 7.9035,-53.268 40.5511005,-100.3492 69.4206005,-143.31063 28.8658,-42.95785 53.6061,-81.79192 89.0079,-103.099 35.0504,-20.9635602 80.7568,-24.7438102 123.7195,-20.6199102 43.3015,4.12407 83.5067,15.8086802 119.2478,36.7721802 z"
     id="path2"
     style="stroke-width:0.999943"
     inkscape:export-filename="blob.svg"
     inkscape:export-xdpi="96"
     inkscape:export-ydpi="96" />
</svg>
