<?xml version="1.0" encoding="UTF-8" standalone="no"?>
<svg
   viewBox="0 0 368.52496 165.9231"
   version="1.1"
   id="svg4"
   sodipodi:docname="blob (1).svg"
   width="368.52496"
   height="165.9231"
   xmlns:inkscape="http://www.inkscape.org/namespaces/inkscape"
   xmlns:sodipodi="http://sodipodi.sourceforge.net/DTD/sodipodi-0.dtd"
   xmlns="http://www.w3.org/2000/svg"
   xmlns:svg="http://www.w3.org/2000/svg">
  <defs
     id="defs8" />
  <sodipodi:namedview
     id="namedview6"
     pagecolor="#ffffff"
     bordercolor="#000000"
     borderopacity="0.25"
     inkscape:showpageshadow="2"
     inkscape:pageopacity="0.0"
     inkscape:pagecheckerboard="0"
     inkscape:deskcolor="#d1d1d1"
     showgrid="false" />
  <path
     fill="#ff0066"
     d="M 14.228741,127.99374 C -3.4324116,102.64554 -4.7708708,68.245904 10.876339,42.564387 26.717423,16.984987 59.350285,0.0216013 89.769342,2.1297241e-5 120.1884,-0.0215587 148.51245,16.732067 170.37617,21.60171 c 21.98253,4.703019 37.38592,-2.311324 70.35653,-7.406872 33.16449,-4.9934087 84.01509,-8.2346327 108.79315,8.255632 24.65928,16.656887 23.36482,52.878638 7.26109,81.07025 -16.10375,28.19165 -46.97302,47.91776 -78.28635,47.69746 -31.31337,-0.2203 -63.02707,-20.82237 -92.77068,-18.3821 -30.05632,2.50484 -58.21761,27.78326 -89.193228,32.32518 -30.975642,4.54192 -64.765613,-11.65268 -82.307941,-37.16752 z"
     id="path2"
     style="stroke-width:1" />
</svg>
